<svg xmlns="http://www.w3.org/2000/svg" viewBox="0 0 512 512"><path d="M300.051 326.987v30.759a17.62 17.62 0 0 0 12.779 16.942l73.081 20.88a61.673 61.673 0 0 1 43.89 49.159l7.793 46.754c1.79 10.741-6.492 20.517-17.38 20.517H91.787c-10.888 0-19.171-9.777-17.38-20.517l7.793-46.754a61.669 61.669 0 0 1 43.89-49.159l73.081-20.88a17.62 17.62 0 0 0 12.779-16.942v-30.759h88.101z" fill="#00bea5"/><path d="M256.001 441.519c37.232 0 68.291-26.398 75.503-61.495l-18.673-5.335a17.62 17.62 0 0 1-12.779-16.942v-30.759H211.95v30.759a17.62 17.62 0 0 1-12.779 16.942l-18.673 5.335c7.211 35.098 38.271 61.495 75.503 61.495z" fill="#b48764"/><path d="M300.051 335.798l-24.228-8.81H211.95v30.759a17.62 17.62 0 0 1-12.779 16.942l-18.673 5.335v.001c74.269 35.418 119.553-44.227 119.553-44.227z" fill="#966d50"/><path d="M379.343 36.253c2.203-15.418 18.722-7.342 18.722-7.342-11.013-57.266-125.911-8.076-125.911-8.076L282.8 9.822c-53.503-30.147-120.405 18.722-120.405 18.722-20.924-6.608-73.785 13.95-73.785 64.24 0 51.393 26.43 128.482 26.43 128.482h290.734s8.81-96.912 8.81-132.152-35.241-52.861-35.241-52.861z" fill="#553732"/><path d="M398.064 28.911c-36.342-45.519-104.07 10.646-104.07 10.646 35.241 2.753 31.386 44.601 31.386 44.601-7.709-12.665-19.272-10.462-19.272-10.462-1.652 40.196-28.633 79.291-43.133 86.266l.735 61.304h142.063s8.81-96.912 8.81-132.152-35.241-52.861-35.241-52.861c2.203-15.418 18.722-7.342 18.722-7.342z" fill="#64463c"/><path d="M388.153 203.646v-79.291H123.849v79.291c-9.731 0-17.62 7.888-17.62 17.62v17.62c0 9.731 7.889 17.62 17.62 17.62.486 0 .942-.105 1.417-.143 5.272 29.593 25.39 54.917 53.963 66.346l44.051 17.62a88.101 88.101 0 0 0 65.441 0l44.051-17.62c28.575-11.429 48.693-36.753 53.963-66.346.476.039.932.143 1.417.143 9.731 0 17.62-7.889 17.62-17.62v-17.62c.001-9.732-7.888-17.62-17.619-17.62z" fill="#c39772"/><path d="M352.912 124.354H123.849v79.291c-9.731 0-17.62 7.888-17.62 17.62v17.62c0 9.731 7.889 17.62 17.62 17.62.486 0 .942-.105 1.417-.143 5.272 29.593 25.39 54.917 53.963 66.346l44.051 17.62c9.943 3.978 20.432 6.006 30.948 6.218-29.898-13.268-52.048-34.709-66.423-52.23-12.912-15.74-19.907-35.449-19.907-55.808v-64.659c0-9.137 6.981-16.876 16.094-17.533 14.479-1.044 27.869-5.533 36.767-5.533 26.43 0 61.671-8.81 114.532 8.81 34.461 11.487 44.051-8.81 44.051-8.81l-26.43-26.429z" fill="#b48764"/><path d="M132.659 203.646s0-44.051 26.43-70.481c0 0 17.115 6.46 52.861 0 22.851-4.13 27.165 0 27.165 0s-1.836 18.171-27.165 26.43c0 0 26.43 17.62 52.861-8.81l-1.836 9.177s27.898 5.506 52.861-23.861c0 0 9.545-.735 19.456 5.873 17.292 11.528 35.241 4.894 35.241 4.894s17.62 21.536 17.62 56.777h17.62v-96.912H115.038v96.912h17.62v.001z" fill="#553732"/><path d="M256.001 300.557c-15.663 0-30.315-3.854-40.196-10.578-4.022-2.736-5.068-8.217-2.327-12.238 2.731-4.017 8.217-5.064 12.238-2.327 6.926 4.71 18.248 7.524 30.285 7.524 12.037 0 23.359-2.814 30.285-7.524 4.031-2.74 9.503-1.699 12.238 2.327 2.74 4.022 1.695 9.503-2.327 12.238-9.882 6.724-24.534 10.578-40.196 10.578z" fill="#966d50"/><path d="M315.836 136.102s9.545-.735 19.456 5.874c17.292 11.528 35.241 4.894 35.241 4.894s17.62 21.536 17.62 56.777h17.62v-96.912H299.467c-9.286 26.635-26.082 48.221-36.49 53.228-.002-.001 27.896 5.505 52.859-23.861z" fill="#64463c"/><path d="M189.925 238.886c-7.298 0-13.215-5.917-13.215-13.215v-8.81c0-7.298 5.917-13.215 13.215-13.215s13.215 5.917 13.215 13.215v8.81c0 7.299-5.917 13.215-13.215 13.215zm132.152 0c-7.298 0-13.215-5.917-13.215-13.215v-8.81c0-7.298 5.917-13.215 13.215-13.215s13.215 5.917 13.215 13.215v8.81c0 7.299-5.917 13.215-13.215 13.215z" fill="#5a4137"/><path d="M256.001 459.14c44.307 0 82.936-31.168 92.435-74.277l-16.922-4.835-.01-.002c-7.212 35.095-38.271 61.494-75.503 61.494s-68.291-26.398-75.503-61.494l-.01.002-16.922 4.835c9.498 43.108 48.126 74.277 92.435 74.277zm-154.969-49.247c-9.734 9.093-16.558 21.181-18.833 34.836l-7.793 46.754C72.617 502.223 80.898 512 91.786 512h49.681v-30.222a44.05 44.05 0 0 0-7.904-25.176l-32.531-46.709zm309.937 0c9.734 9.093 16.558 21.181 18.833 34.836l7.793 46.754c1.79 10.74-6.492 20.517-17.38 20.517h-49.681v-30.222a44.05 44.05 0 0 1 7.904-25.176l32.531-46.709z" fill="#00aa9a"/></svg>