<svg xmlns="http://www.w3.org/2000/svg" viewBox="0 0 464 464"><path d="M370.802 365.011a39.997 39.997 0 0 0-21.761-30.49l-17.232-8.616c-2.567-1.284-5.51-.145-6.766 2.29L316.36 325c59.867-16.309 91.64-45 91.64-45-31.5-61.5-23-155-48-208S288 0 232 0 129 19 104 72 87.5 218.5 56 280c0 0 31.774 28.69 91.641 44.999l-8.682 3.195c-1.242-2.438-4.18-3.584-6.742-2.303l-15.714 7.857c-13.41 6.705-21.552 18.121-23.304 31.262l-.388 2.908v.001l-9.188 68.908C81.705 451.216 92.898 464 107.413 464h249.175c14.515 0 25.708-12.784 23.789-27.172l-9.575-71.817z" fill="#ffd7a3"/><path d="M360 72C335 19 288 0 232 0S129 19 104 72 87.5 218.5 56 280c0 0 62 56 176 56s176-56 176-56c-31.5-61.5-23-155-48-208z" fill="#9d6e48"/><path d="M184 143C184 87 204.909 34.707 247.137.55 242.164.219 237.135 0 232 0c-56 0-103 19-128 72S87.5 218.5 56 280c0 0 45.431 39.895 128 52.264V143z" fill="#8d5f3d"/><path d="M371.19 367.921a40 40 0 0 0-25.837-32.253l-54.412-20.02a16 16 0 0 1-10.94-15.179V248h-96v52.468a16 16 0 0 1-10.94 15.179l-54.412 20.02a40 40 0 0 0-25.837 32.253l-9.188 68.908C81.706 451.216 92.899 464 107.413 464h249.176c14.515 0 25.708-12.784 23.789-27.172l-9.188-68.907z" fill="#ffd7a3"/><path d="M184 300.469c0 .391-.017.777-.046 1.161-.014.2-.04.396-.062.595-.018.16-.034.32-.057.478a16.19 16.19 0 0 1-.158.911l-.004.019a16.002 16.002 0 0 1-7.424 10.538C243.173 325.732 280 274.667 280 274.667L184 274v26.469z" fill="#fdc88e"/><path d="M344 160v-16c0-22.091-17.909-40-40-40H160c-22.091 0-40 17.909-40 40v16c-13.255 0-24 10.746-24 24 0 13.255 10.745 24 24 24v8a48.002 48.002 0 0 0 29.538 44.308l51.691 21.538a80.007 80.007 0 0 0 61.539 0l51.694-21.539A47.997 47.997 0 0 0 344 216v-8c13.255 0 24-10.745 24-24s-10.745-24-24-24z" fill="#ffe1b2"/><path d="M302 127.625V107H144.811C130.255 112.981 120 127.288 120 144v16c-13.255 0-24 10.745-24 24s10.745 24 24 24v8a48 48 0 0 0 29.538 44.308l51.69 21.538a80.115 80.115 0 0 0 7.727 2.749c-22.844-16.711-38.05-31.32-46.96-40.872-6.482-6.95-9.995-16.121-9.995-25.625v-58.21c25.806-.635 107.684-4.821 150-32.263z" fill="#ffd7a3"/><path d="M176 192c-4.4 0-8-3.6-8-8v-8c0-4.4 3.6-8 8-8s8 3.6 8 8v8c0 4.4-3.6 8-8 8zm112 0c-4.4 0-8-3.6-8-8v-8c0-4.4 3.6-8 8-8s8 3.6 8 8v8c0 4.4-3.6 8-8 8z" fill="#623f33"/><path d="M232 248.219c-14.223 0-27.527-3.5-36.5-9.605-3.652-2.484-4.602-7.461-2.113-11.113 2.48-3.648 7.461-4.598 11.113-2.113 6.289 4.277 16.57 6.832 27.5 6.832s21.211-2.555 27.5-6.832a7.992 7.992 0 0 1 11.113 2.113 7.997 7.997 0 0 1-2.113 11.113c-8.972 6.105-22.277 9.605-36.5 9.605z" fill="#e4b07b"/><path d="M136 144s51 5 80-8c4.081-1.829 16-28 16-28v36s36.786-1.903 75-17.326V98H130.55c3.633 18.297 5.45 46 5.45 46z" fill="#9d6e48"/><path d="M349.041 334.521l-17.232-8.616c-2.92-1.46-6.327.212-7.184 3.362-11.09 40.761-48.352 70.736-92.626 70.736-44.285 0-81.555-29.99-92.635-70.767-.852-3.134-4.242-4.797-7.146-3.345l-15.714 7.857c-13.41 6.705-21.552 18.121-23.304 31.262l-9.576 71.817c-1.918 14.388 9.275 27.172 23.789 27.172h249.176c14.515 0 25.708-12.784 23.789-27.172l-9.576-71.817a39.998 39.998 0 0 0-21.761-30.489z" fill="#ff6473"/><path d="M96.843 353.124c-1.813 3.734-3.087 7.708-3.645 11.887l-9.576 71.817C81.704 451.216 92.897 464 107.412 464H144v-32a48.003 48.003 0 0 0-9.6-28.8l-37.557-50.076zm270.314 0c1.813 3.734 3.087 7.708 3.645 11.887l9.576 71.817c1.918 14.388-9.275 27.172-23.79 27.172H320v-32a47.997 47.997 0 0 1 9.6-28.8l37.557-50.076z" fill="#f05467"/><path d="M332 103.649c0 10.77-21.73 19.5-32.5 19.5s-19.5-8.73-19.5-19.5 8.73-19.5 19.5-19.5 32.5 8.731 32.5 19.5zm0 0c0-10.77 21.73-19.5 32.5-19.5s19.5 8.73 19.5 19.5-8.73 19.5-19.5 19.5-32.5-8.73-32.5-19.5z" fill="#bd445a"/><path d="M332 103.649c9.327 5.385 6.022 28.569.638 37.896-5.385 9.327-17.311 12.522-26.638 7.138s-12.522-17.311-7.138-26.638c5.386-9.327 23.812-23.781 33.138-18.396z" fill="#ff6473"/><path d="M332 103.649c-9.327-5.385-6.022-28.569-.637-37.896s17.311-12.522 26.638-7.138 12.522 17.311 7.138 26.638c-5.386 9.327-23.812 23.781-33.139 18.396z" fill="#ff6473"/><path d="M332 103.649c-9.327 5.385-6.022 28.569-.637 37.896s17.311 12.522 26.638 7.138 12.522-17.311 7.138-26.638c-5.386-9.327-23.812-23.781-33.139-18.396z" fill="#f05467"/><path d="M332 103.649c9.327-5.385 6.022-28.569.638-37.896-5.385-9.327-17.311-12.522-26.638-7.138s-12.522 17.311-7.138 26.638c5.386 9.327 23.812 23.781 33.138 18.396z" fill="#f05467"/><circle cx="332" cy="103.649" r="13" fill="#fff"/><path d="M130.546 98c3.635 18.297 5.455 46 5.455 46s23.071 2.249 47-.225V143c0-15.386 1.7-30.476 4.981-45h-57.436z" fill="#8d5f3d"/></svg>