<svg id="Capa_1" xmlns="http://www.w3.org/2000/svg" viewBox="0 0 362.4 303.7"><style>.st0{fill:gray}.st1{fill:#d88400}.st2{fill:#949494}.st3{fill:#707070}.st4{fill:#2ec100}</style><path class="st0" d="M302.8 73.7l-22.3-9.6-24.3 24.3c22.4 5.7 40.4 13.8 51.7 23.4l12.4-15-17.5-23.1zM181.2 42l-65.6 7.6-56 24.1L42 96.8l12.4 15c22.1-18.9 70.5-32 126.7-32 5.2 0 10.4.1 15.5.3l59.6 8.3 24.3-24.3-51.3-16.5-48-5.6z"/><path class="st0" d="M362.4 96.8l-13.6 78.7-43.9 72.4-71.1 46.9-52.6 8.9-52.6-8.9-71.1-46.9-43.9-72.4L0 96.8l25.8 49.7 60.4 32.6 95 14.4 95-14.4 60.4-32.6z"/><path class="st1" d="M256.2 88.4l-59.6-8.3-15.5-.3c-56.2 0-104.6 13.1-126.7 32l8.8 10.6 50 20.9 18 2.2 49.9 6 13.6-1.7 54.3-6.6 50-20.9 8.8-10.6c-11.1-9.5-29.2-17.6-51.6-23.3z"/><path class="st2" d="M339.2 49.4l-29.3-14.7-45.3-22.6-5.5-2.8L181.2 0l-77.9 9.4-80.1 40L0 96.8l25.8 49.8 60.4 32.6 95 14.4 95-14.4 60.4-32.6 25.8-49.8-23.2-47.4zm-31.3 62.4l-8.8 10.6-50 20.9-54.3 6.6-13.6 1.7-49.9-6-18-2.2-50-20.9-8.8-10.6L42 96.8l17.6-23 56-24.1 65.6-7.6 48 5.6 51.3 16.5 22.3 9.6 17.6 23-12.5 15z"/><path class="st3" d="M0 96.8l25.8 49.7 60.4 32.6 95 14.4 52.6 101.3-52.6 8.9-52.6-8.9-71.1-46.9-43.9-72.4z"/><path class="st4" d="M182 104.3c-4.5 2.5-8.5 0-4.5 2.5s9 0 9 0l-4.5-2.5zm10 16.4c-5 1.2-8.2-2.2-5 1.2 3.2 3.5 8.7 2.4 8.7 2.4l-3.7-3.6zm-22.2 2.8c5.1.3 7.1 4.6 5.1.3s-7.6-4.9-7.6-4.9l2.5 4.6zm25-13.9c-1.1 5-5.6 6.4-1.1 5 4.5-1.3 6-6.7 6-6.7l-4.9 1.7zm-27.4-1.3c-5.1.5-7.8-3.4-5.1.5s8.3 3.6 8.3 3.6l-3.2-4.1zm14 7.9c2.7-4.4 7.4-4.2 2.7-4.4-4.7-.2-7.9 4.4-7.9 4.4h5.2z"/></svg>