<?xml version="1.0" encoding="utf-8"?>
<!-- Generator: Adobe Illustrator 21.0.0, SVG Export Plug-In . SVG Version: 6.00 Build 0)  -->
<svg version="1.1" id="Capa_1" xmlns="http://www.w3.org/2000/svg" xmlns:xlink="http://www.w3.org/1999/xlink" x="0px" y="0px"
	 viewBox="0 0 362.4 303.7" style="enable-background:new 0 0 362.4 303.7;" xml:space="preserve">
<style type="text/css">
	.st0{fill:#808080;}
	.st1{fill:#D88400;}
	.st2{fill:#949494;}
	.st3{fill:#707070;}
	.st4{fill:#2EC100;}
</style>
<g>
	<path class="st0" d="M302.8,73.7l-22.3-9.6l-24.3,24.3c22.4,5.7,40.4,13.8,51.7,23.4l12.4-15L302.8,73.7z"/>
	<path class="st0" d="M181.2,42l-65.6,7.6l-56,24.1L42,96.8l12.4,15c22.1-18.9,70.5-32,126.7-32c5.2,0,10.4,0.1,15.5,0.3l59.6,8.3
		l24.3-24.3l-51.3-16.5L181.2,42z"/>
</g>
<polygon class="st0" points="362.4,96.8 348.8,175.5 304.9,247.9 233.8,294.8 181.2,303.7 128.6,294.8 57.5,247.9 13.6,175.5 
	0,96.8 25.8,146.5 86.2,179.1 181.2,193.5 276.2,179.1 336.6,146.5 "/>
<path class="st1" d="M256.2,88.4l-59.6-8.3l-15.5-0.3c-56.2,0-104.6,13.1-126.7,32l8.8,10.6l50,20.9l18,2.2l49.9,6l13.6-1.7
	l54.3-6.6l50-20.9l8.8-10.6C296.7,102.2,278.6,94.1,256.2,88.4z"/>
<path class="st2" d="M339.2,49.4l-29.3-14.7l-45.3-22.6l-5.5-2.8L181.2,0l-77.9,9.4l-80.1,40L0,96.8l25.8,49.8l60.4,32.6l95,14.4
	l95-14.4l60.4-32.6l25.8-49.8L339.2,49.4z M307.9,111.8l-8.8,10.6l-50,20.9l-54.3,6.6l-13.6,1.7l-49.9-6l-18-2.2l-50-20.9l-8.8-10.6
	L42,96.8l17.6-23l56-24.1l65.6-7.6l48,5.6l51.3,16.5l22.3,9.6l17.6,23L307.9,111.8z"/>
<polygon class="st3" points="0,96.8 25.8,146.5 86.2,179.1 181.2,193.5 233.8,294.8 181.2,303.7 128.6,294.8 57.5,247.9 13.6,175.5 
	"/>
<path class="st4" d="M182,104.3c-4.5,2.5-8.5,0-4.5,2.5s9,0,9,0L182,104.3z"/>
<path class="st4" d="M192,120.7c-5,1.2-8.2-2.2-5,1.2c3.2,3.5,8.7,2.4,8.7,2.4L192,120.7z"/>
<path class="st4" d="M169.8,123.5c5.1,0.3,7.1,4.6,5.1,0.3c-2-4.3-7.6-4.9-7.6-4.9L169.8,123.5z"/>
<path class="st4" d="M194.8,109.6c-1.1,5-5.6,6.4-1.1,5c4.5-1.3,6-6.7,6-6.7L194.8,109.6z"/>
<path class="st4" d="M167.4,108.3c-5.1,0.5-7.8-3.4-5.1,0.5c2.7,3.9,8.3,3.6,8.3,3.6L167.4,108.3z"/>
<path class="st4" d="M181.4,116.2c2.7-4.4,7.4-4.2,2.7-4.4c-4.7-0.2-7.9,4.4-7.9,4.4L181.4,116.2z"/>
</svg>
